{"title":"Le Haula Le (2012) - Bengali - DVD RIP - Uncut - 127 min","uid":7349030,"size":735299546,"categoryP":"video","categoryS":"movies","magnet":"?xt=urn:btih:cab290863adb2473fc86b30316a19805eb34daec&amp;dn=Le+Haula+Le+%282012%29+-+Bengali+-+DVD+RIP+-+Uncut+-+127+min&amp;tr=udp%3A%2F%2Ftracker.openbittorrent.com%3A80&amp;tr=udp%3A%2F%2Fopen.demonii.com%3A1337&amp;tr=udp%3A%2F%2Ftracker.coppersurfer.tk%3A6969&amp;tr=udp%3A%2F%2Fexodus.desync.com%3A6969","seeders":0,"leechers":1,"uploader":"popai5000","files":-1,"time":1339530259,"description":"\n\n\nNote : DVD Is Out Now.This Is Original Uncut DVD.Movie Length - 127 Min.\n\n\n\nScreens :\n\n\n &lt;a href=&quot;\nhttp://picturestack.com/522/109/lvbLeHaluaLe2HIa.jpeg&quot; rel=&quot;nofollow&quot; target=&quot;_NEW&quot;&gt;\nhttp://picturestack.com/522/109/lvbLeHaluaLe2HIa.jpeg&lt;/a&gt;\n\n &lt;a href=&quot;\nhttp://i.imgur.com/qQB7Q.jpg&quot; rel=&quot;nofollow&quot; target=&quot;_NEW&quot;&gt;\nhttp://i.imgur.com/qQB7Q.jpg&lt;/a&gt;\n\n\n\nExtra Screens :\n\n\n &lt;a href=&quot;\nhttp://i.imgur.com/p9UOQ.jpg&quot; rel=&quot;nofollow&quot; target=&quot;_NEW&quot;&gt;\nhttp://i.imgur.com/p9UOQ.jpg&lt;/a&gt;\n &lt;a href=&quot;\nhttp://i.imgur.com/Letqf.jpg&quot; rel=&quot;nofollow&quot; target=&quot;_NEW&quot;&gt;\nhttp://i.imgur.com/Letqf.jpg&lt;/a&gt;\n &lt;a href=&quot;\nhttp://i.imgur.com/VHGSa.jpg&quot; rel=&quot;nofollow&quot; target=&quot;_NEW&quot;&gt;\nhttp://i.imgur.com/VHGSa.jpg&lt;/a&gt;\n &lt;a href=&quot;\nhttp://i.imgur.com/OqzTU.jpg&quot; rel=&quot;nofollow&quot; target=&quot;_NEW&quot;&gt;\nhttp://i.imgur.com/OqzTU.jpg&lt;/a&gt;\n\n\n\nMedia Info :\n\n\n\nFormat                           : AVI\nFormat/Info                      : Audio Video Interleave\nFile size                        : 700 MiB\nDuration                         : 2h 26mn\nOverall bit rate                 : 669 Kbps\n\nVideo ID                         : 0\nFormat                           : MPEG-4 Visual\nFormat settings, GMC             : No warppoints\nFormat settings, Matrix          : Custom\nCodec ID                         : XVID\nCodec ID/Hint                    : XviD\nDuration                         : 2h 26mn\nBit rate                         : 540 Kbps\nWidth                            : 560 pixels\nHeight                           : 240 pixels\nDisplay aspect ratio             : 2.35:1\nFrame rate                       : 23.976 fps\nColor space                      : YUV\nChroma subsampling               : 4:2:0\nBit depth                        : 8 bits\nScan type                        : Progressive\nCompression mode                 : Lossy\nBits/(Pixel*Frame)               : 0.167\nStream size                      : 565 MiB (81%)\n\nAudio\nID                               : 1\nFormat                           : MPEG Audio\nFormat version                   : Version 1\nFormat profile                   : Layer 3\nMode                             : Joint stereo\nMode extension                   : MS Stereo\nCodec ID                         : 55\nCodec ID/Hint                    : MP3\nDuration                         : 2h 26mn\nBit rate mode                    : Variable\nBit rate                         : 117 Kbps\nNominal bit rate                 : 128 Kbps\nChannel(s)                       : 2 channels\nSampling rate                    : 48.0 KHz\nCompression mode                 : Lossy\nStream size                      : 122 MiB (17%)\nAlignment                        : Aligned on interleaves\nInterleave, duration             : 24 ms (0.58 video frame)\nInterleave, preload duration     : 498 ms\n\n\n\n\n","torrent":{"xt":"urn:btih:cab290863adb2473fc86b30316a19805eb34daec","amp;dn":"Le+Haula+Le+%282012%29+-+Bengali+-+DVD+RIP+-+Uncut+-+127+min","amp;tr":["udp%3A%2F%2Ftracker.openbittorrent.com%3A80","udp%3A%2F%2Fopen.demonii.com%3A1337","udp%3A%2F%2Ftracker.coppersurfer.tk%3A6969","udp%3A%2F%2Fexodus.desync.com%3A6969"],"infoHash":"cab290863adb2473fc86b30316a19805eb34daec","infoHashBuffer":{"type":"Buffer","data":[202,178,144,134,58,219,36,115,252,134,179,3,22,161,152,5,235,52,218,236]},"announce":[],"urlList":[]}}